<?xml version="1.0" encoding="UTF-8" standalone="no"?>
<svg
   xmlns:osb="http://www.openswatchbook.org/uri/2009/osb"
   xmlns:dc="http://purl.org/dc/elements/1.1/"
   xmlns:cc="http://creativecommons.org/ns#"
   xmlns:rdf="http://www.w3.org/1999/02/22-rdf-syntax-ns#"
   xmlns:svg="http://www.w3.org/2000/svg"
   xmlns="http://www.w3.org/2000/svg"
   xmlns:sodipodi="http://sodipodi.sourceforge.net/DTD/sodipodi-0.dtd"
   xmlns:inkscape="http://www.inkscape.org/namespaces/inkscape"
   version="1.0"
   width="60"
   height="40"
   viewBox="140 100 41.731702 24"
   id="svg3412"
   inkscape:version="0.91 r13725"
   sodipodi:docname="loxberry_footer_logo.svg"
   inkscape:export-filename="C:\Users\Chrissi\Desktop\loxberry.png"
   inkscape:export-xdpi="72"
   inkscape:export-ydpi="72">
  <title
     id="title4358">Loxberry Footer Logo</title>
  <metadata
     id="metadata3486">
    <rdf:RDF>
      <cc:Work
         rdf:about="">
        <dc:format>image/svg+xml</dc:format>
        <dc:type
           rdf:resource="http://purl.org/dc/dcmitype/StillImage" />
        <dc:title>Loxberry Footer Logo</dc:title>
      </cc:Work>
    </rdf:RDF>
  </metadata>
  <defs
     id="defs3484">
    <linearGradient
       id="linearGradient4288"
       osb:paint="solid">
      <stop
         style="stop-color:#000000;stop-opacity:1;"
         offset="0"
         id="stop4290" />
    </linearGradient>
  </defs>
  <sodipodi:namedview
     pagecolor="#ffffff"
     bordercolor="#666666"
     borderopacity="1"
     objecttolerance="10"
     gridtolerance="10"
     guidetolerance="10"
     inkscape:pageopacity="0"
     inkscape:pageshadow="2"
     inkscape:window-width="1920"
     inkscape:window-height="1057"
     id="namedview3482"
     showgrid="false"
     inkscape:zoom="5.8441077"
     inkscape:cx="66.550509"
     inkscape:cy="33.887733"
     inkscape:window-x="-8"
     inkscape:window-y="-8"
     inkscape:window-maximized="1"
     inkscape:current-layer="g3414" />
  <g
     transform="matrix(0.03721248,0,0,-0.03721248,86.532433,204.17424)"
     id="g3414"
     style="fill:#ffffff;stroke:none">
    <g
       id="g4728"
       transform="matrix(0.64724189,0,0,0.68552675,488.98194,-3679.9002)">
      <path
         style="fill-opacity:1"
         inkscape:connector-curvature="0"
         id="path3416"
         d="m 2075,9514.7389 c -3.2186,-1.2432 -7.7924,-3.2633 -10.1641,-4.6619 -2.2022,-1.554 -130.439,-118.5695 -284.933,-260.138 -308.9881,-283.4478 -284.5943,-259.3609 -284.4249,-280.1844 0,-15.3845 5.2514,-26.7286 17.9565,-38.2282 5.7597,-5.2835 14.738,-11.3441 20.4976,-13.9859 9.1477,-4.0404 11.8581,-4.5066 27.1042,-4.5066 12.7051,0 18.126,0.6216 22.0222,2.6418 2.8798,1.3986 116.0399,104.4282 251.561,228.7474 135.5211,124.4746 246.479,226.261 246.479,226.261 0,0 82.329,-75.524 182.9534,-167.6756 100.455,-92.307 183.2923,-167.5201 184.1393,-167.0539 0.6776,0.4662 1.3552,3.4187 1.3552,6.5267 0,5.2836 1.694,7.3038 19.1424,23.3099 14.2297,13.0535 20.1587,17.4047 23.3773,17.4047 2.3717,0 6.0985,1.7094 8.3007,3.8849 2.3716,2.1756 5.9291,3.885 8.4701,3.885 2.541,0 6.0984,1.554 8.47,3.885 3.0493,2.9526 5.7597,3.885 13.2134,4.1958 11.1804,0.6216 13.8909,3.108 10.6722,10.1009 -1.8634,4.3512 -422.3175,390.2069 -434.0062,398.4431 -11.5193,8.0807 -22.0222,10.4117 -32.1863,7.1483 z" />
      <path
         style="fill-opacity:1"
         inkscape:connector-curvature="0"
         id="path3418"
         d="m 1863.9259,9093.763 -219.0359,-200.9309 0,-182.2831 0,-182.1276 4.0656,-5.9052 c 5.0821,-7.4591 9.1477,-10.5671 16.2625,-13.0535 8.6395,-2.9526 809.7385,-2.1756 809.7385,0.777 0,1.0878 -5.7596,7.1483 -12.7051,13.5197 -9.6559,8.8578 -12.7051,12.5873 -12.7051,15.8507 0,2.6418 -1.694,5.7498 -4.4044,8.0808 -4.2351,3.5741 -4.5739,4.3511 -3.7269,15.5399 1.0164,13.0535 -0.6776,16.0061 -7.7924,14.2967 -3.388,-0.777 -6.4373,1.3986 -19.4812,13.5197 -11.8581,11.0333 -15.4155,15.2291 -15.4155,18.6479 0,2.4863 -1.694,5.5943 -4.235,7.6145 -4.0657,3.2634 -4.2351,4.0404 -4.2351,23.3099 0,19.4248 0,19.891 4.2351,22.3774 3.388,2.0202 4.235,3.885 4.235,8.547 0,3.4188 -0.6776,6.0605 -1.694,6.0605 -0.847,0 -5.0821,3.2634 -9.1477,7.1484 -6.4372,5.9052 -7.4536,7.9253 -6.6066,11.4995 0.6776,3.5742 0,4.8174 -3.5575,6.993 -3.8962,2.331 -4.4044,3.7295 -4.4044,11.0333 0,6.993 -0.6776,9.0131 -4.235,11.8103 -4.2351,3.2634 -4.2351,3.7296 -4.2351,26.8841 l 0,23.4652 8.4701,7.6146 c 5.929,5.4389 8.4701,8.8577 8.4701,11.8103 0,4.9728 3.8962,8.2361 8.3006,7.1483 3.5575,-0.777 8.6395,1.3986 8.6395,3.7296 0,0.9324 -5.7596,6.6822 -12.8745,12.7427 l -12.8745,11.1888 0,30.9244 0,30.769 8.6395,8.0807 c 5.5902,5.2836 8.6394,9.324 8.6394,11.8104 0,2.7971 4.7433,8.2361 16.7708,19.4248 l 16.7707,15.5399 0.6776,18.9587 0.6776,18.9587 -168.7237,154.7774 c -92.6626,85.0033 -169.7402,154.622 -171.0954,154.622 -1.3552,0 -100.9632,-90.4422 -221.4076,-200.7755 z m 101.6408,-116.8601 c 6.0985,-0.4662 12.5357,-1.5539 14.2298,-2.3309 1.694,-0.777 6.6066,-2.7972 11.011,-4.3512 4.5739,-1.554 8.1313,-3.2634 8.1313,-3.885 0,-0.777 1.0164,-1.2432 2.2022,-1.2432 5.0821,0 22.1916,-14.9183 31.5087,-27.3502 11.6887,-16.0061 15.7543,-27.9718 16.4319,-48.6399 0.3388,-12.4319 -0.1694,-19.4249 -1.8634,-24.0869 -1.3552,-3.4187 -2.541,-7.6145 -2.541,-9.0131 0,-1.554 -0.6776,-2.7972 -1.5246,-2.7972 -0.847,0 -2.0329,-1.8648 -2.5411,-4.0403 -3.0492,-10.878 -21.1751,-29.8367 -37.2683,-39.316 -15.4155,-8.8577 -31.0004,-13.0535 -50.8204,-13.6751 -15.2461,-0.4662 -18.4647,0 -32.1862,4.3512 -8.4701,2.6417 -16.6013,5.7497 -18.126,6.9929 -1.3552,1.2432 -3.5574,2.1756 -4.5738,2.1756 -1.1858,0 -7.9619,5.439 -15.2461,12.1211 -12.5357,11.4996 -24.3938,29.0596 -26.596,39.0052 -0.3388,1.8648 -1.1858,4.0404 -1.694,4.8173 -1.8635,2.7972 -2.3717,27.1949 -0.6777,36.5188 3.5575,19.4249 10.5029,31.8568 26.5961,48.1737 8.3006,8.2362 25.2408,19.1141 30.3228,19.5803 0.847,0 2.2022,0.6216 3.0492,1.3986 1.8634,1.3986 14.9073,4.9727 21.0058,5.5943 2.2022,0.3108 4.235,0.777 4.5738,1.0878 0.6776,0.6216 7.7925,0.3108 26.596,-1.0878 z m 269.687,-5.9051 c 15.2461,-4.3512 34.5579,-18.0263 47.9406,-33.7216 5.5902,-6.8376 13.3827,-23.7761 15.7543,-34.3432 2.3716,-11.1887 1.1858,-42.2685 -1.694,-43.2009 -1.0164,-0.3108 -1.8634,-1.8648 -1.8634,-3.4188 0,-3.4188 -7.7925,-17.7155 -13.0439,-24.0868 -7.4537,-8.8578 -21.6834,-21.2897 -27.9513,-24.2423 -3.388,-1.554 -6.6066,-3.5742 -7.1148,-4.1958 -0.5082,-0.777 -4.5738,-2.3309 -8.9783,-3.4187 -4.5738,-1.0878 -9.1477,-2.7972 -10.5029,-3.7296 -1.5246,-1.0878 -11.3499,-1.7094 -25.5796,-1.7094 -22.3609,0 -24.7326,0.3108 -35.9131,5.5944 -1.694,0.777 -3.7268,1.3985 -4.7432,1.3985 -4.235,0 -24.2244,13.3644 -32.6945,21.9113 -11.5192,11.4995 -22.0221,30.4582 -24.3937,44.1333 -5.4209,31.0798 4.4044,59.8287 27.443,80.9629 17.7871,16.1615 32.525,22.8437 57.5964,26.2625 14.0603,1.8647 30.1535,0.3108 45.7384,-4.1958 z m 0.5082,-289.0422 c -1.694,-24.0868 -12.5357,-45.2211 -32.6945,-64.0244 -20.1587,-18.9587 -42.5197,-30.3028 -75.0448,-38.5389 -10.8416,-2.7972 -17.9565,-3.4188 -42.6891,-3.4188 -32.5251,-0.1554 -44.2138,1.8648 -71.1486,11.6549 -46.9241,17.2493 -81.3126,58.2746 -81.3126,97.1244 l 0,9.9455 151.7836,0 151.953,0 -0.847,-12.7427 z" />
      <path
         style="fill-opacity:1"
         inkscape:connector-curvature="0"
         id="path3420"
         d="m 1914.3782,8983.4463 c -21.6452,-5.277 -60.8769,-34.6773 -71.2485,-54.2776 -11.7244,-21.1079 -11.2735,-58.8006 0.4509,-79.1547 11.2735,-19.6002 32.4677,-37.6928 55.9166,-48.2467 28.4092,-12.8155 79.3654,-11.6847 107.3236,2.2615 77.5617,38.0697 78.0126,133.0554 0.9019,170.7482 -22.9979,11.3078 -64.9353,15.0771 -93.3445,8.6693 z" />
      <path
         style="fill-opacity:1"
         inkscape:connector-curvature="0"
         id="path3422"
         d="m 2166.3631,8985.4202 c -34.6413,-10.415 -69.7774,-40.8269 -79.18,-68.7392 -12.8668,-38.7439 -0.4949,-79.5708 33.1566,-109.1495 24.7437,-21.2467 51.9618,-30.8285 88.0877,-30.8285 49.9824,0 95.5109,23.7462 116.7905,61.2404 13.3616,23.7462 14.8462,67.0728 2.4744,89.1526 -29.6925,53.325 -96.9955,77.4879 -161.3292,58.3242 z" />
      <path
         style="fill-opacity:1"
         inkscape:connector-curvature="0"
         id="path3424"
         d="m 2683.1509,9153.4362 c -4.4045,-4.0403 -9.3171,-8.0807 -11.0111,-9.0131 -2.7104,-1.554 -2.8798,-2.0202 -0.847,-4.3512 1.1858,-1.3986 4.235,-2.4864 6.776,-2.4864 3.3881,0 8.8089,-4.0403 23.5468,-17.5601 l 18.973,-17.4047 0,-11.6549 c 0,-9.9455 0.5082,-11.9657 4.0656,-15.3845 3.0492,-3.2634 4.235,-6.3713 4.9126,-15.0737 l 1.0164,-11.0333 -6.6066,-6.5268 c -3.5574,-3.4188 -7.7925,-6.3713 -9.1477,-6.3713 -4.235,0 -3.2186,5.5943 1.5246,8.3915 3.5575,2.1756 4.2351,3.7296 4.2351,10.7225 0,6.8376 -0.6776,9.0132 -4.2351,11.9658 -3.7268,3.2633 -4.235,4.8173 -4.235,15.3845 l 0,11.8103 -19.1424,17.5601 c -14.2297,13.0535 -20.1587,17.4047 -23.3773,17.4047 -2.3717,0 -6.0985,1.7094 -8.1313,3.7296 -3.7268,3.5741 -4.4044,3.7295 -30.3228,3.4187 -25.9185,-0.1554 -26.5961,-0.3108 -28.2901,-3.5741 -1.1858,-2.6418 -3.0492,-3.5742 -7.2842,-3.5742 -4.9127,0 -8.1313,-2.331 -25.2408,-17.8709 -14.3991,-13.0535 -19.3118,-18.6479 -18.8036,-20.6681 1.1858,-3.7296 -1.3552,-8.0807 -4.5738,-8.0807 -2.8798,0 -3.7268,-2.9526 -4.9127,-17.4047 -0.847,-9.4794 -0.5082,-10.7226 2.7105,-12.2765 3.0492,-1.554 4.4044,-0.777 11.0111,6.2159 5.5902,5.9052 8.6394,7.9254 12.1969,7.9254 2.7104,0 6.2678,1.554 8.6394,3.8849 3.8963,3.885 4.2351,3.885 33.8803,3.885 l 29.8146,0 8.3007,-7.7699 c 5.7596,-5.2836 9.6559,-7.77 12.7051,-7.77 5.7596,0 16.9401,-10.2563 16.9401,-15.6953 0,-2.1756 1.8634,-5.5943 4.0657,-7.4591 3.2186,-2.7972 4.0656,-5.439 4.9126,-14.6075 0.847,-11.655 -0.5082,-16.6277 -4.7432,-16.6277 -3.8963,0 -5.7597,4.8173 -4.7433,12.4319 0.6776,6.0605 0.1694,7.4591 -3.5574,10.7225 -2.541,2.1756 -4.4044,5.439 -4.4044,7.9254 0,2.7971 -3.0493,6.6821 -10.6723,13.6751 -10.1641,9.3239 -11.0111,9.6347 -19.1424,9.6347 -6.9454,0 -9.317,0.777 -12.5357,3.885 -3.7268,3.5742 -5.082,3.885 -21.1751,3.885 -16.0932,0 -17.4484,-0.3108 -21.1752,-3.885 -2.3716,-2.1756 -5.9291,-3.885 -8.4701,-3.885 -2.541,0 -6.0984,-1.7094 -8.47,-3.885 -2.3717,-2.3309 -5.9291,-3.8849 -8.6395,-3.8849 -2.7104,0 -5.7597,-1.0878 -6.9455,-2.4864 -1.1858,-1.2432 -3.8962,-3.885 -5.929,-5.5944 -2.2022,-1.8648 -3.8963,-5.1281 -3.8963,-7.4591 0,-2.7972 -2.541,-6.3714 -8.47,-11.655 -7.9619,-7.1483 -8.4701,-8.2361 -8.4701,-15.3845 0,-6.0605 -0.847,-8.5469 -4.0656,-11.6549 -3.5574,-3.4188 -4.2351,-5.7498 -4.5739,-15.3845 -0.3388,-10.4117 0,-11.6549 4.0657,-15.5399 3.7268,-3.5742 4.5738,-5.9052 4.5738,-12.1211 0,-8.0808 3.2186,-13.0535 8.6395,-13.0535 1.3552,0 12.3663,9.1685 24.3938,20.2018 l 22.0222,20.2019 8.6394,0 c 6.9455,0 9.3171,0.777 12.5357,3.885 3.8963,3.885 4.4045,3.885 29.6453,3.885 25.2408,0 25.749,0 29.6452,-3.885 2.2022,-2.1756 5.929,-3.885 8.3007,-3.885 6.2678,0 34.0496,-25.4854 34.0496,-31.2352 0,-2.1756 1.8634,-5.5944 4.2351,-7.6145 4.235,-3.5742 4.4044,-4.5066 4.0656,-18.9587 -0.3388,-16.7831 1.0164,-19.8911 8.4701,-19.8911 6.0984,0 25.5796,-17.7155 25.5796,-23.4653 0,-5.7497 3.0492,-7.6145 12.7051,-7.6145 7.1148,0 9.4864,-0.777 12.7051,-3.885 2.2022,-2.1756 5.929,-3.885 8.3006,-3.885 3.3881,0 7.7925,-3.1079 16.9402,-11.4995 l 12.5357,-11.6549 12.5357,0.1554 c 11.3499,0 13.2133,-0.4662 17.1095,-3.885 6.7761,-6.0605 18.973,-6.2159 25.4102,-0.6216 l 4.7433,4.1958 29.6452,0 29.4758,0 23.3774,-21.4451 23.208,-21.2896 0,-11.8104 c 0,-10.5671 0.5082,-12.1211 4.235,-15.3845 3.3881,-2.9525 4.2351,-5.1281 4.2351,-11.6549 0,-6.5267 -0.847,-8.7023 -4.2351,-11.6549 -3.7268,-3.2634 -4.235,-4.8174 -4.235,-15.5399 0,-10.7226 -0.5082,-12.2765 -4.235,-15.5399 -4.9127,-4.1958 -5.9291,-13.0535 -1.5246,-14.6075 1.5246,-0.4662 8.1312,-0.9324 14.9073,-0.9324 10.8417,0 12.7051,0.4662 16.2625,3.885 2.3716,2.1755 5.929,3.8849 8.4701,3.8849 2.541,0 6.0984,1.7094 8.47,3.885 2.2023,2.1756 5.9291,3.885 8.4701,3.885 5.5902,0 8.4701,2.6418 8.4701,7.7699 0,2.7972 2.7104,6.3714 8.47,11.655 5.9291,5.2835 8.4701,8.8577 8.4701,11.6549 0,2.331 1.8634,5.7497 4.235,7.7699 4.2351,3.5742 4.2351,4.0404 4.2351,27.1949 0,23.1544 0,23.6206 -4.2351,27.1948 -2.3716,2.0202 -4.235,5.439 -4.235,7.6145 0,5.7498 -27.7818,31.2352 -34.0497,31.2352 -2.3716,0 -6.0984,1.7094 -8.3006,3.885 -3.7269,3.7296 -5.0821,3.885 -21.3446,3.885 -13.5521,0 -17.9565,-0.4662 -19.9894,-2.4864 -1.5246,-1.2432 -2.7104,-3.108 -2.7104,-3.885 0,-2.3309 -7.9618,-3.2633 -11.6887,-1.3986 -2.0328,0.9324 -3.5574,2.6418 -3.5574,3.885 0,2.9526 5.4208,5.439 9.6559,4.5066 3.388,-0.777 7.9618,2.1756 9.317,5.9052 0.6777,1.5539 6.0985,1.8647 22.6998,1.5539 20.3282,-0.4662 22.1916,-0.777 26.2572,-4.3511 2.3717,-2.0202 6.0985,-3.7296 8.4701,-3.7296 5.7596,0 33.7109,-25.6408 33.7109,-31.0798 0,-2.0202 2.0328,-5.7498 4.5738,-8.0808 4.235,-4.0403 4.5738,-5.2835 4.235,-16.0061 -0.3388,-10.8779 -0.1694,-11.6549 3.8963,-14.1413 5.4208,-3.2633 5.4208,-5.7497 0,-9.0131 -3.7269,-2.1756 -4.2351,-3.7296 -4.2351,-11.6549 0,-12.7428 2.5411,-13.0536 14.738,-1.3986 5.4208,5.1281 13.8909,13.0535 18.8035,17.5601 7.1149,6.6821 8.8089,9.1685 8.8089,13.3643 0,4.0404 1.0164,5.7497 3.8962,6.8375 3.7268,1.554 3.7268,2.0202 3.7268,30.3028 0,28.2827 0,28.7489 -3.7268,30.3029 -2.8798,1.0877 -3.8962,2.7971 -3.8962,6.6821 0,4.3512 -2.2022,7.1484 -14.7379,18.9587 -11.1805,10.4117 -16.0932,13.9859 -19.3118,13.9859 -2.3716,0 -6.0984,1.7094 -8.3007,3.885 -3.8962,3.885 -4.235,3.885 -34.0496,3.885 -31.3393,0 -30.1535,0.3107 -36.7601,-6.993 -1.5246,-1.554 -3.5575,-2.0202 -5.7597,-1.3986 -2.541,0.777 -5.2514,-0.9324 -11.5193,-6.993 -8.1312,-7.9253 -13.5521,-10.1009 -13.5521,-5.4389 0,1.2432 5.0821,6.8375 11.3499,12.4319 8.9783,7.9254 12.1969,9.9455 15.2461,9.3239 3.3881,-0.9323 4.5739,-0.3108 10.3335,6.0606 1.694,1.8648 4.0657,2.1756 10.1641,1.3986 7.1149,-0.777 8.4701,-0.4662 12.0275,3.108 3.388,3.2634 5.5902,4.0404 12.8745,4.0404 7.1149,0 9.4865,-0.777 12.7051,-3.885 3.2186,-3.108 5.5902,-3.885 12.7051,-3.885 7.1149,0 9.4865,-0.777 12.7051,-3.885 2.3716,-2.1756 5.9291,-3.8849 8.4701,-3.8849 2.7104,0 5.929,-1.554 8.3006,-4.0404 3.7269,-3.885 3.8963,-3.885 7.1149,-1.2432 2.3716,2.0202 3.0492,3.885 2.2022,6.0605 -0.5082,1.7094 -1.1858,10.4118 -1.3552,19.4249 -0.1694,15.3845 -0.3388,16.4723 -3.8962,17.8709 -2.8798,1.0878 -3.8963,2.7972 -3.8963,6.6822 0,4.3511 -1.8634,6.9929 -11.011,15.3845 -11.0111,10.1009 -11.0111,10.1009 -18.6342,9.0131 -6.9454,-0.9324 -7.9619,-0.6216 -12.3663,3.7296 -4.5738,4.662 -4.7432,4.662 -21.8528,4.5066 -15.9237,-0.1554 -17.7871,-0.4662 -21.1751,-3.885 -2.0329,-2.0202 -5.5903,-3.5742 -8.1313,-3.5742 -2.541,0 -6.0984,-1.7094 -8.4701,-3.885 -2.2022,-2.1756 -5.929,-3.8849 -8.1312,-3.8849 -3.0493,0 -7.7925,-3.2634 -16.6014,-11.655 -11.8581,-11.3441 -17.6177,-14.2967 -17.6177,-9.1685 0,1.2432 8.6395,9.9455 19.1423,19.2695 13.5522,12.2765 20.1588,17.0939 23.0386,17.0939 2.3716,0 6.4373,1.8647 8.9783,4.1957 4.235,3.7296 6.0985,4.1958 17.4483,4.3512 6.9455,0 13.0439,0.6216 13.7216,1.0878 0.5082,0.6216 1.3552,4.662 1.694,9.0131 l 0.6776,7.9254 -15.2462,14.1413 -15.4155,13.9859 -7.623,-1.0878 c -6.9455,-0.9324 -7.9619,-0.6216 -12.1969,3.7296 -5.7597,6.216 -12.3663,6.3714 -16.9402,0.6216 -3.2186,-3.885 -4.235,-4.3512 -12.5357,-3.885 -7.9618,0.4662 -9.6558,0 -13.2133,-3.5742 -2.2022,-2.1755 -5.929,-3.8849 -8.1312,-3.8849 -3.0493,0 -8.6395,-4.1958 -20.8364,-15.5399 -15.9237,-14.9183 -21.8528,-18.3371 -21.8528,-13.0536 0,1.2432 10.5029,11.8104 23.3774,23.3099 17.7871,16.0061 24.2244,20.8235 27.6124,20.8235 6.0985,0 7.9619,2.4864 8.1313,11.4995 0,7.3037 -0.3388,7.9253 -10.8417,17.5601 -8.6395,7.9253 -11.6887,9.7901 -14.3991,9.0131 -2.541,-0.777 -4.7432,0.3108 -7.9619,3.7296 -4.4044,4.662 -5.2514,4.8174 -17.6177,4.8174 -8.3007,0 -13.5521,-0.6216 -14.7379,-1.8648 -1.0164,-1.2432 -1.694,-11.6549 -1.5246,-25.9517 0.1694,-17.56 -0.3388,-24.2422 -1.8635,-24.7084 -4.235,-1.2432 -7.1148,-5.2836 -6.2678,-8.5469 0.6776,-2.4864 -0.847,-5.1282 -5.7597,-9.9456 -3.7268,-3.7296 -7.9618,-6.6821 -9.317,-6.6821 -4.2351,0 -3.2187,5.5943 1.694,8.5469 3.388,2.0202 4.0656,3.4188 3.388,6.216 -1.0164,3.5741 -0.3388,4.5065 6.6067,9.7901 2.2022,1.7094 2.541,5.9052 2.3716,25.6408 l -0.1694,23.6207 -5.0821,4.3512 c -3.5574,2.9526 -4.7432,5.1281 -3.8962,7.3037 0.847,2.4864 -2.0328,6.0606 -13.8909,16.7831 l -14.9073,13.8305 -22.1916,0.3108 c -24.5632,0.3108 -27.7818,-0.9324 -20.1588,-7.9253 3.8963,-3.5742 4.0657,-4.1958 4.4045,-38.539 l 0.3388,-34.9648 -6.0985,-5.7497 c -3.388,-3.2634 -7.2842,-5.9052 -8.6394,-5.9052 -4.2351,0 -3.2187,5.5944 1.5246,8.3916 l 4.235,2.4863 0,31.8568 0,31.8568 -4.235,2.4864 c -2.8798,1.7094 -4.2351,3.885 -4.2351,7.1484 0,3.7296 -2.8798,7.3037 -14.9073,18.3371 l -14.9073,13.6751 -29.6452,0 -29.4759,0 -7.7924,-7.1484 z" />
      <path
         style="fill-opacity:1"
         inkscape:connector-curvature="0"
         id="path3426"
         d="m 2525.777,9087.0808 c -2.3716,-2.1755 -5.929,-3.8849 -8.4701,-3.8849 -2.541,0 -6.0984,-1.7094 -8.47,-3.885 -2.2022,-2.1756 -5.9291,-3.885 -8.3007,-3.885 -3.388,0 -8.9783,-4.1958 -23.5468,-17.5601 -16.0931,-14.7629 -18.9729,-18.1817 -18.6341,-21.9112 0.3388,-3.2634 -0.847,-5.1282 -4.2351,-7.4592 -3.5574,-2.331 -4.5738,-4.3512 -4.5738,-8.7023 0,-4.5066 -0.847,-6.0606 -3.7268,-7.3038 -3.0492,-1.2432 -4.0657,-3.108 -4.4045,-7.7699 -0.3388,-4.8174 -1.3552,-6.6822 -4.235,-7.77 -3.7268,-1.554 -3.7268,-2.1756 -4.235,-37.6065 l -0.5082,-36.0526 4.4044,-2.6418 c 3.8962,-2.331 4.5738,-2.331 8.4701,0 2.8798,1.7094 4.235,4.0404 4.235,6.8376 0,2.6417 1.694,5.9051 4.235,8.0807 2.3717,2.0202 4.2351,5.439 4.2351,7.77 0,5.4389 19.4811,23.3098 25.5796,23.3098 2.8798,0 7.2842,2.9526 14.7379,9.7901 l 10.5029,9.7902 0,11.6549 c 0,10.5671 0.5082,12.1211 4.235,15.3845 2.3716,2.0202 4.235,5.439 4.235,7.6146 0,2.1756 2.0329,5.7497 4.4045,8.0807 4.235,4.0404 4.4044,4.9728 4.235,19.5803 -0.3388,14.6075 -0.1694,15.5399 4.0656,19.1141 3.2187,2.7972 4.0657,4.8173 3.3881,7.4591 -0.6776,2.7972 0.1694,4.0404 4.235,6.216 5.4209,2.7972 6.2679,4.8174 3.0492,7.7699 -3.388,3.108 -10.6723,2.1756 -14.9073,-2.0202 z" />
      <path
         style="fill-opacity:1"
         inkscape:connector-curvature="0"
         id="path3428"
         d="m 2610.4777,8978.3015 c -3.2186,-3.1079 -5.5903,-3.8849 -12.5357,-3.8849 l -8.6395,0 -23.3774,-21.4451 c -17.7871,-16.3169 -23.208,-22.2221 -23.208,-25.33 0,-2.1756 -1.8634,-5.5944 -4.235,-7.6146 -4.235,-3.5742 -4.235,-4.0404 -4.235,-27.0394 l 0,-23.4653 15.7543,-14.4521 c 8.6395,-7.7699 16.7707,-14.2967 18.2954,-14.2967 3.8962,0 8.3006,5.1282 8.3006,9.6347 0,2.0202 1.8634,5.439 4.2351,7.4592 2.3716,2.0202 4.235,5.439 4.235,7.6145 0,5.7498 36.2519,39.0052 42.5197,39.0052 2.3716,0 6.0985,1.7094 8.3007,3.885 3.8962,3.885 4.4044,3.885 29.4758,3.885 l 25.5796,0 6.4373,5.4389 c 5.2514,4.5066 6.0984,5.9052 4.7432,8.3916 -1.0164,1.554 -2.8798,3.2633 -4.4044,3.8849 -1.8634,0.6216 -2.541,3.108 -2.541,9.0132 l 0,8.2361 -14.9074,13.6751 c -10.8416,9.9456 -15.9237,13.5198 -19.1423,13.5198 -2.3716,0 -6.0985,1.7093 -8.3007,3.8849 -3.7268,3.5742 -5.082,3.885 -21.1751,3.885 -16.0932,0 -17.4484,-0.3108 -21.1752,-3.885 z" />
      <path
         style="fill-opacity:1"
         inkscape:connector-curvature="0"
         id="path3430"
         d="m 2499.3504,8962.7616 c -1.8634,-2.4864 -4.4044,-3.8849 -7.2843,-3.8849 -6.2678,0 -25.5796,-17.7155 -25.5796,-23.4653 0,-2.1756 -1.8634,-5.5944 -4.235,-7.6145 -2.3716,-2.1756 -4.235,-5.439 -4.235,-7.77 0,-2.331 -1.8634,-5.5944 -4.2351,-7.7699 -4.235,-3.5742 -4.235,-3.885 -4.235,-31.0799 0,-27.1948 0,-27.5056 4.235,-31.0798 2.3717,-2.0201 4.2351,-5.4389 4.2351,-7.6145 0,-3.108 3.7268,-7.6146 14.9073,-17.5601 13.8909,-12.8981 15.0767,-13.5197 22.6998,-13.8305 10.6723,-0.4662 13.2133,1.7094 13.2133,11.8103 l 0,8.2362 12.7051,10.8779 c 6.9454,6.0606 12.7051,11.6549 12.7051,12.5873 0,0.9324 -1.8634,2.7972 -4.2351,4.1958 -3.8962,2.331 -4.235,3.4188 -4.235,14.7629 0,11.3441 -0.3388,12.4319 -4.235,14.7629 -5.2515,3.2634 -5.2515,5.1282 0,9.1685 3.8962,2.9526 4.235,4.1958 4.4044,18.3371 0.1694,14.4521 0,15.5399 -4.235,19.5803 -2.3716,2.331 -4.4045,5.9052 -4.4045,8.0808 0,2.1755 -1.8634,5.5943 -4.4044,7.7699 -3.2186,2.7972 -4.0656,4.8174 -3.388,7.77 1.5246,7.6145 -5.5903,10.2563 -10.1641,3.7295 z" />
      <path
         style="fill-opacity:1"
         inkscape:connector-curvature="0"
         id="path3432"
         d="m 2415.4967,8932.3034 c -1.0164,-1.8648 -5.082,-6.2159 -9.317,-9.7901 -5.4209,-4.8174 -7.1149,-7.3038 -6.4373,-9.6348 0.6776,-2.4863 -1.5246,-5.4389 -8.4701,-11.8103 l -9.4864,-8.5469 0,-27.1949 c 0,-26.884 0,-27.1948 4.235,-30.769 2.3716,-2.0201 4.235,-5.2835 4.235,-7.4591 0,-2.6418 4.7433,-8.0808 16.0932,-18.6479 l 16.0931,-15.0737 4.7432,2.331 c 3.2187,1.7094 4.7433,3.885 5.0821,7.3037 0.3388,3.7296 2.7104,6.8376 8.9782,11.9658 7.9619,6.5267 8.3007,7.1483 8.3007,15.2291 0,6.9929 -0.6776,9.1685 -4.235,12.1211 -4.2351,3.5742 -4.2351,3.885 -4.2351,30.769 l 0,27.1948 -9.1476,8.8578 c -8.8089,8.3915 -9.1477,9.1685 -8.3007,15.2291 1.3552,9.4793 -4.0656,14.7629 -8.1313,7.9253 z" />
      <path
         style="fill-opacity:1"
         inkscape:connector-curvature="0"
         id="path3434"
         d="m 2652.828,8900.602 c -3.2186,-3.108 -5.5902,-3.885 -12.5357,-3.885 l -8.6394,0 -19.1424,-17.56 c -14.2297,-13.0536 -18.9729,-18.4925 -18.9729,-21.4451 0,-2.1756 -1.8635,-5.5944 -4.2351,-7.6146 -2.3716,-2.1755 -4.235,-5.4389 -4.235,-7.7699 0,-2.331 -1.8634,-5.5944 -4.235,-7.77 -3.8963,-3.4187 -4.2351,-4.6619 -4.2351,-19.4248 0,-14.7629 0.3388,-16.0061 4.2351,-19.4249 2.3716,-2.0202 4.235,-5.439 4.235,-7.6146 0,-3.1079 3.7268,-7.6145 14.9073,-17.7155 13.7215,-12.5873 15.5849,-13.6751 20.8364,-13.2089 5.2514,0.4662 5.7596,0.9324 6.2678,6.0606 0.3388,3.5742 2.0328,6.9929 4.7433,9.1685 3.5574,3.2634 4.0656,4.9728 4.0656,15.5399 0,10.7226 0.5082,12.2766 4.235,15.5399 2.3716,2.1756 4.2351,5.439 4.2351,7.77 0,2.331 1.8634,5.5944 4.235,7.7699 2.3716,2.0202 4.235,5.439 4.235,7.6146 0,5.7498 36.2519,39.0051 42.5198,39.0051 2.3716,0 6.0984,1.7094 8.3006,3.885 3.0493,2.9526 5.7597,3.885 13.2133,4.1958 8.3007,0.4662 9.8253,0.9324 12.1969,4.662 2.3717,4.1957 2.3717,4.3511 -5.082,11.3441 -5.082,4.8174 -8.9783,6.9929 -11.8581,6.9929 -2.541,0 -6.2678,1.7094 -8.4701,3.885 -3.8962,3.7296 -4.7432,3.885 -25.4102,3.885 -20.6669,0 -21.5139,-0.1554 -25.4102,-3.885 z" />
      <path
         style="fill-opacity:1"
         inkscape:connector-curvature="0"
         id="path3436"
         d="m 2712.1185,8861.7523 c -2.2022,-2.1756 -5.929,-3.885 -8.3007,-3.885 -6.2678,0 -42.5197,-33.2554 -42.5197,-39.0052 0,-2.1755 -1.8634,-5.5943 -4.235,-7.6145 -2.3717,-2.0202 -4.2351,-5.439 -4.2351,-7.6146 0,-2.1755 -1.8634,-5.5943 -4.235,-7.9253 -3.8962,-3.7296 -4.0656,-4.8174 -4.4044,-27.0394 -0.1694,-22.6883 -0.1694,-22.9991 4.235,-27.1949 2.3716,-2.331 4.4044,-5.9051 4.4044,-8.0807 0,-2.6418 4.2351,-7.6146 14.9073,-17.4047 l 14.738,-13.5197 25.5796,0 c 25.0714,0 25.5796,0 29.4758,3.885 2.2022,2.1755 5.9291,3.8849 8.3007,3.8849 6.2678,0 42.5197,33.2554 42.5197,39.0052 0,2.1756 1.8634,5.5943 4.235,7.6145 2.3717,2.1756 4.2351,5.439 4.2351,7.77 0,2.331 1.8634,5.5943 4.235,7.7699 4.235,3.5742 4.235,4.0404 4.235,27.1949 0,23.1544 0,23.6206 -4.235,27.1948 -2.3716,2.0202 -4.235,5.439 -4.235,7.7699 0,5.5944 -19.4812,23.3099 -25.5796,23.3099 -2.3716,0 -6.0985,1.7094 -8.3007,3.885 -3.8962,3.7295 -4.7432,3.8849 -25.4102,3.8849 -20.667,0 -21.514,-0.1554 -25.4102,-3.8849 z" />
      <path
         style="fill-opacity:1"
         inkscape:connector-curvature="0"
         id="path3438"
         d="m 2528.6568,8833.3143 c -11.0111,-10.101 -11.3499,-10.7226 -11.3499,-18.3371 0,-6.3714 -0.847,-8.547 -4.235,-11.4996 -3.7268,-3.2633 -4.235,-4.8173 -4.235,-15.5399 0,-10.7225 0.5082,-12.2765 4.235,-15.5399 3.388,-2.9525 4.235,-5.1281 4.235,-11.4995 l 0,-7.9253 19.1424,-17.5601 18.973,-17.4047 12.8745,0 c 13.8909,0 16.7707,1.3986 16.7707,7.7699 0,2.331 1.8634,5.7498 4.235,7.77 2.541,2.1756 4.2351,5.4389 4.2351,7.9253 0,2.6418 1.5246,4.9728 4.235,6.6822 2.3716,1.3986 4.235,3.2634 4.235,4.1958 0,0.9324 -5.7596,6.5267 -12.7051,12.5873 -9.8253,8.3915 -12.7051,11.8103 -12.7051,15.0737 0,2.4864 -1.694,5.7498 -4.235,7.9253 -3.8962,3.4188 -4.235,4.662 -4.235,19.4249 l 0,15.6953 -11.5193,10.4117 c -6.2679,5.7498 -12.5357,10.4118 -14.0604,10.4118 -1.3552,0 -7.623,-4.662 -13.8909,-10.5671 z" />
      <path
         style="fill-opacity:1"
         inkscape:connector-curvature="0"
         id="path3440"
         d="m 2815.7921,8832.6927 c -1.5246,-1.3986 -2.0328,-10.878 -2.0328,-33.1 l 0,-31.3906 -4.235,-3.5742 c -2.3716,-2.1756 -4.2351,-5.439 -4.2351,-7.77 0,-2.331 -1.8634,-5.5943 -4.235,-7.7699 -2.3716,-2.0202 -4.235,-5.439 -4.235,-7.6146 0,-5.9051 -36.2519,-39.0051 -42.5198,-39.0051 -4.7432,0 -9.9946,-4.1958 -9.9946,-7.9254 0,-1.2432 5.082,-6.9929 11.5193,-12.7427 l 11.5192,-10.4117 21.1752,0 c 20.4976,0 21.3446,0.1554 25.2408,3.8849 2.2022,2.1756 5.9291,3.885 8.3007,3.885 6.2678,0 34.0497,25.4855 34.0497,31.2352 0,2.1756 1.8634,5.5944 4.235,7.6146 2.3716,2.1756 4.235,5.4389 4.235,7.7699 0,2.331 1.8634,5.5944 4.2351,7.77 4.235,3.5742 4.235,4.0404 4.235,27.1948 0,23.1545 0,23.6207 -4.235,27.1948 -3.3881,2.9526 -4.2351,5.1282 -4.2351,11.655 0,7.6145 -0.3388,8.2361 -10.6723,17.5601 -7.4536,6.6821 -11.8581,9.6347 -14.9073,9.6347 -2.3716,0 -6.0984,1.7094 -8.3007,3.885 -4.235,4.1957 -11.5192,5.1281 -14.9073,2.0202 z" />
      <path
         style="fill-opacity:1"
         inkscape:connector-curvature="0"
         id="path3442"
         d="m 2881.5199,8830.6725 c -2.8799,-2.7972 -5.5903,-3.885 -8.9783,-3.5742 -3.388,0.3108 -5.5903,-0.4662 -6.9455,-2.331 -1.5246,-2.331 -1.0164,-3.4188 2.8798,-6.3714 2.7105,-2.0201 4.5739,-4.8173 4.5739,-7.3037 0,-2.1756 1.8634,-5.5944 4.235,-7.6146 l 4.2351,-3.5741 0,-35.2756 0,-35.2756 -4.2351,-3.5742 c -2.3716,-2.1756 -4.235,-5.4389 -4.235,-7.7699 0,-2.331 -1.8634,-5.5944 -4.235,-7.77 -2.5411,-2.1756 -4.2351,-5.4389 -4.2351,-7.9253 0,-3.2634 -2.2022,-6.0606 -8.6395,-11.1888 -9.9946,-7.9253 -10.3334,-11.9657 -1.1858,-11.9657 3.5575,0 6.9455,-1.3986 9.9947,-4.0403 4.4045,-3.885 5.4209,-4.0404 21.3446,-3.885 15.0767,0.3108 16.9401,0.6216 21.0058,4.1957 2.3716,2.0202 6.0984,3.7296 8.47,3.7296 2.3716,0 6.0985,1.7094 8.3007,3.885 2.2022,2.1756 5.7596,3.885 7.7925,3.885 6.9454,0 9.1476,1.7094 9.1476,6.8375 0,3.885 1.8634,6.5268 8.4701,12.5874 5.929,5.2835 8.4701,8.8577 8.4701,11.6549 0,2.331 1.8634,5.7497 4.235,7.7699 4.235,3.5742 4.235,3.885 4.235,31.0798 0,27.1949 0,27.5057 -4.235,31.0798 -2.3716,2.0202 -4.235,5.439 -4.235,7.6146 0,5.7498 -27.7819,31.2352 -34.0497,31.2352 -2.3716,0 -6.0985,1.7094 -8.3007,3.885 -3.5574,3.4187 -5.2514,3.8849 -16.9401,3.8849 -11.6887,0 -13.3827,-0.3108 -16.9401,-3.8849 z" />
      <path
         style="fill-opacity:1"
         inkscape:connector-curvature="0"
         id="path3444"
         d="m 2450.5628,8816.5312 c -0.5082,-1.3986 -1.0164,-4.0404 -1.0164,-5.9052 0,-1.8648 -1.8634,-5.1282 -4.235,-7.1484 l -4.2351,-3.5741 0,-35.2756 0,-35.2756 4.2351,-3.5742 c 2.3716,-2.0202 4.235,-5.4389 4.235,-7.7699 0,-5.439 19.4812,-23.3099 25.4102,-23.3099 2.3716,0 5.9291,-1.7094 8.1313,-3.8849 5.082,-4.8174 8.8088,-3.5742 8.8088,2.9525 0,3.4188 1.3553,6.216 4.2351,8.7024 3.5574,2.9526 4.235,5.1281 4.235,11.8103 0,7.9254 0.3388,8.3915 8.4701,14.9183 4.5738,3.7296 8.47,7.6146 8.47,8.547 0,1.0877 -1.8634,3.1079 -4.235,4.5065 -2.7104,1.7094 -4.235,4.0404 -4.235,6.6822 0,2.4864 -1.694,5.7497 -4.2351,7.9253 -3.8962,3.4188 -4.235,4.662 -4.235,19.4249 l 0,15.6953 -6.4372,5.7498 c -3.8963,3.5742 -8.1313,5.7497 -10.6723,5.7497 -2.8798,0 -6.9455,2.6418 -12.5357,7.77 -6.6067,6.0606 -9.4865,7.7699 -13.7215,7.7699 -3.3881,0 -5.7597,-0.9324 -6.4373,-2.4863 z" />
      <path
         style="fill-opacity:1"
         inkscape:connector-curvature="0"
         id="path3446"
         d="m 2383.8187,8785.7622 -10.5029,-10.101 0,-23.3098 c 0,-19.1141 0.5082,-23.7761 2.541,-25.3301 7.6231,-5.7497 7.7925,-6.0605 6.6067,-13.5197 -1.0164,-7.6145 -1.0164,-7.7699 6.9454,-13.9859 1.8634,-1.2432 2.541,-3.4188 1.8634,-5.7498 -0.847,-2.7971 0,-4.1957 3.0493,-6.2159 2.3716,-1.2432 4.7432,-3.7296 5.2514,-5.439 0.847,-2.1756 2.7104,-2.9526 6.6067,-2.9526 4.4044,0 7.1148,-1.554 13.5521,-7.7699 6.776,-6.5268 8.6394,-7.4592 11.3499,-6.216 2.3716,1.2432 2.8798,2.7972 2.2022,5.9052 -0.6776,3.2634 0.1694,5.1281 3.388,7.9253 2.541,2.1756 4.4044,5.439 4.4044,7.9254 0,2.331 1.8635,5.5943 4.2351,7.7699 6.6066,5.7498 5.5902,10.5672 -4.2351,19.4249 -7.9618,7.1484 -8.47,8.0808 -8.47,15.5399 0,6.5268 -0.847,8.7024 -4.2351,11.6549 -3.8962,3.4188 -4.235,4.662 -4.235,19.4249 l 0,15.6953 -10.6723,9.6347 c -13.8909,12.5874 -15.9237,12.5874 -29.6452,-0.3107 z" />
      <path
         style="fill-opacity:1"
         inkscape:connector-curvature="0"
         id="path3448"
         d="m 3089.0365,8756.8579 c -5.7596,-5.2835 -9.6559,-7.7699 -12.7051,-7.7699 -3.2186,0 -10.6723,-5.7498 -31.8474,-25.3301 l -27.4431,-25.1746 0,-11.8103 c 0,-10.5672 -0.5082,-12.1211 -4.235,-15.3845 -3.388,-2.9526 -4.235,-5.1282 -4.235,-11.655 0,-6.5267 -0.847,-8.7023 -4.2351,-11.6549 -2.541,-2.1756 -4.235,-5.4389 -4.235,-7.9253 0,-3.2634 -2.0328,-6.0606 -8.4701,-11.0334 -8.3006,-6.5267 -10.5029,-11.0333 -6.2678,-12.5873 1.0164,-0.3108 9.3171,-0.1554 18.1259,0.4662 8.8089,0.777 16.6014,1.2432 17.1096,1.0878 0.6776,-0.1554 4.5738,2.9526 8.8088,7.1484 5.5903,5.4389 8.8089,7.3037 12.5357,7.3037 3.3881,0 6.7761,1.7094 11.1805,5.9052 3.388,3.2634 6.2679,6.6821 6.2679,7.7699 0,1.0878 1.0164,1.8648 2.2022,1.8648 4.235,0 14.7379,11.4995 14.7379,16.1615 0,3.2634 2.2022,6.216 8.4701,11.6549 6.9454,6.0606 8.47,8.2362 8.47,12.7428 0,4.0403 0.847,5.7497 3.8963,6.8375 3.2186,1.3986 3.7268,2.6418 3.7268,10.5672 0,8.0807 0.5082,9.4793 4.7432,12.2765 l 4.5739,3.108 0,19.7356 c 0,21.1343 -0.847,23.4653 -8.4701,23.4653 -3.0492,0 -6.9454,-2.4864 -12.7051,-7.77 z" />
      <path
         style="fill-opacity:1"
         inkscape:connector-curvature="0"
         id="path3450"
         d="m 2607.7673,8743.1828 c -4.9127,-4.9727 -5.7597,-6.8375 -5.7597,-13.3643 0,-6.216 -0.847,-8.5469 -4.4044,-11.9657 l -4.4044,-4.1958 0.3388,-26.884 c 0.1694,-26.4179 0.1694,-27.0395 4.235,-30.9244 2.3716,-2.331 4.235,-5.7498 4.235,-7.9254 0,-5.1281 11.3499,-15.3845 17.1096,-15.3845 2.3716,0 6.0984,-1.7094 8.3006,-3.885 3.8963,-3.8849 4.4045,-3.8849 29.6453,-3.8849 25.2408,0 25.749,0 29.6452,3.8849 2.2022,2.1756 5.929,3.885 8.3007,3.885 3.388,0 8.9782,4.1958 23.7162,17.7155 18.9729,17.4047 19.3117,17.8709 19.3117,24.7085 0,5.4389 -1.1858,8.2361 -4.7432,12.2765 -6.9455,7.6145 -8.8089,8.2361 -13.3827,3.7296 -5.5903,-5.7498 -18.973,-5.7498 -24.7326,-0.1554 -3.2187,3.1079 -5.5903,3.8849 -12.5357,3.8849 l -8.6395,0 -19.1424,17.5601 c -14.2297,13.0535 -18.9729,18.4925 -18.9729,21.4451 0,5.1281 -2.8798,7.6145 -8.8089,7.6145 -2.7104,0 -5.2514,1.0878 -6.2678,2.9526 -3.2187,5.439 -6.7761,5.1282 -13.0439,-1.0878 z" />
      <path
         style="fill-opacity:1"
         inkscape:connector-curvature="0"
         id="path3452"
         d="m 2515.9517,8720.65 c -6.4372,-6.0606 -7.1148,-7.3038 -7.1148,-14.4521 0,-6.3714 -0.847,-8.547 -4.2351,-11.4996 -3.388,-2.9526 -4.235,-5.1281 -4.235,-11.6549 0,-6.5268 0.847,-8.7023 4.235,-11.6549 3.3881,-2.9526 4.2351,-5.1282 4.2351,-11.655 0,-6.5267 0.847,-8.7023 4.235,-11.6549 2.3716,-2.0202 4.235,-5.2835 4.235,-7.1483 0,-6.3714 1.8635,-8.3916 7.4537,-8.3916 3.7268,0 6.7761,-1.2432 9.4865,-3.885 2.3716,-2.1755 5.929,-3.8849 8.47,-3.8849 2.5411,0 6.0985,-1.7094 8.4701,-3.885 3.2186,-3.108 5.5903,-3.885 12.7051,-3.885 7.1149,0 9.4865,0.777 12.7051,3.885 3.388,3.2634 5.5903,3.885 13.8909,3.885 12.0275,0 14.9073,3.1079 7.6231,8.3915 -2.8798,2.0202 -4.5738,4.9728 -4.5738,7.3038 0,2.1756 -1.8635,5.5943 -4.2351,7.6145 -3.388,2.9526 -4.235,5.1282 -4.235,11.6549 0,6.5268 -0.847,8.7024 -4.235,11.655 -3.7269,3.2634 -4.2351,4.8173 -4.2351,15.5399 0,11.6549 -0.1694,11.9657 -6.4372,17.5601 -5.5903,5.1281 -7.4537,5.7497 -14.9074,5.7497 -7.9618,0 -8.9782,0.4662 -17.6177,8.547 -5.082,4.6619 -10.3335,8.5469 -11.8581,8.5469 -1.5246,0 -5.929,-2.9526 -9.8253,-6.6821 z" />
      <path
         style="fill-opacity:1"
         inkscape:connector-curvature="0"
         id="path3454"
         d="m 2990.9531,8690.8134 c -3.8962,-3.7296 -4.7432,-3.885 -25.5796,-3.885 l -21.5139,0 -7.6231,-7.77 c -5.5903,-5.7497 -8.8089,-7.7699 -12.1969,-7.7699 -2.7104,0 -6.2679,-1.554 -8.6395,-3.885 -3.5574,-3.4188 -5.2514,-3.885 -16.9401,-3.885 -14.0603,0 -16.9401,-1.3986 -16.9401,-7.7699 0,-2.331 -1.8635,-5.7498 -4.2351,-7.77 -2.3716,-2.0202 -4.235,-5.4389 -4.235,-7.7699 0,-2.7972 -2.7104,-6.5268 -9.3171,-12.432 -5.082,-4.6619 -9.3171,-9.4793 -9.3171,-10.8779 0,-3.885 13.8909,-15.5399 18.6342,-15.5399 2.2022,0 6.0984,-1.8648 8.6395,-4.0404 4.4044,-3.8849 5.4208,-4.0403 21.3445,-3.8849 15.0767,0.3108 16.9402,0.6216 21.0058,4.1957 2.3716,2.0202 6.0984,3.7296 8.4701,3.7296 2.3716,0 6.0984,1.7094 8.3006,3.885 2.2022,2.1756 5.9291,3.885 8.3007,3.885 6.0984,0 42.5197,33.2554 42.5197,38.8497 0,2.0202 1.8634,5.439 4.0657,7.6146 3.5574,3.5742 4.0656,5.9051 4.7432,19.891 1.0164,19.5803 -1.3552,23.3099 -9.4865,15.2292 z" />
      <path
         style="fill-opacity:1"
         inkscape:connector-curvature="0"
         id="path3456"
         d="m 2452.765,8685.6852 c -2.541,-1.554 -3.2186,-4.0404 -3.2186,-10.2564 0,-6.6821 -0.6776,-8.8577 -4.235,-11.8103 -3.7269,-3.2634 -4.2351,-4.8173 -4.2351,-15.5399 0,-10.7225 0.5082,-12.2765 4.2351,-15.5399 3.388,-2.9526 4.235,-5.1281 4.235,-11.4995 0,-7.9254 0,-8.0808 14.9073,-21.6005 l 14.7379,-13.5197 12.8745,0 c 13.891,0 16.7708,1.3986 16.7708,7.77 0,2.331 1.8634,5.7497 4.235,7.7699 3.8962,3.2634 4.235,4.8174 4.235,16.0061 l 0,12.2765 -8.47,6.993 c -6.2679,5.1282 -8.4701,8.0807 -8.4701,11.1887 0,2.4864 -1.694,5.7498 -4.235,7.9254 -3.388,2.9526 -4.2351,5.1281 -4.2351,11.6549 0,8.8577 -2.0328,11.6549 -8.47,11.6549 -2.541,0 -6.0985,1.554 -8.3007,3.7296 -4.5738,4.5066 -17.2789,6.0606 -22.361,2.7972 z" />
      <path
         style="fill-opacity:1"
         inkscape:connector-curvature="0"
         id="path3458"
         d="m 2822.2294,8667.5035 -4.0657,-4.0404 -33.7108,0.1554 -33.5415,0.3108 -14.7379,-13.0535 c -8.1313,-7.1484 -14.7379,-13.5197 -14.7379,-14.4521 0,-0.777 6.6066,-7.3038 14.5685,-14.2967 14.2297,-12.5873 14.7379,-12.8981 23.0386,-12.8981 6.776,0 9.1476,-0.777 12.3663,-3.885 3.5574,-3.4188 5.2514,-3.885 16.9401,-3.885 11.6887,0 13.3827,0.4662 16.9401,3.885 3.2187,3.108 5.5903,3.885 12.5357,3.885 l 8.6395,0 18.973,17.5601 c 18.4647,16.9384 18.9729,17.56 19.3117,24.8638 0.5082,6.6822 -0.1694,7.9253 -6.0984,13.5197 -6.6067,6.216 -6.7761,6.216 -19.4812,6.216 -11.6887,0 -13.3827,-0.4662 -16.9401,-3.885 z" />
      <path
         style="fill-opacity:1"
         inkscape:connector-curvature="0"
         id="path3460"
         d="m 2399.7424,8661.1321 c -0.5082,-1.3986 -1.0164,-11.0333 -1.0164,-21.6004 0,-19.8911 -0.1694,-19.4249 7.7925,-25.4855 1.5246,-1.2432 2.3716,-3.4187 1.694,-5.2835 -1.1858,-4.1958 18.8035,-22.8437 24.7326,-22.8437 6.6066,0 8.1312,2.7972 8.1312,15.5399 0,10.7225 -0.5082,12.2765 -4.235,15.5399 -3.8962,3.4188 -4.235,4.662 -4.235,19.4249 0,16.9385 -1.0164,19.4249 -8.4701,19.4249 -2.541,0 -6.2678,1.7094 -8.4701,3.8849 -4.5738,4.5066 -14.2297,5.439 -15.9237,1.3986 z" />
      <path
         style="fill-opacity:1"
         inkscape:connector-curvature="0"
         id="path3462"
         d="m 2706.0201,8625.235 c -4.7433,-0.4662 -8.3007,-1.8648 -10.8417,-4.5066 -3.2187,-2.9526 -5.5903,-3.7296 -12.7051,-3.7296 -7.2843,0 -9.4865,-0.6216 -12.8745,-4.0404 -3.8963,-4.0403 -4.4045,-4.0403 -21.514,-3.4187 -15.7543,0.6216 -17.6178,0.4662 -19.1424,-2.1756 -1.3552,-2.1756 -0.6776,-3.5742 2.7105,-6.5268 3.388,-2.9526 4.235,-5.1281 4.235,-11.3441 0,-6.216 0.847,-8.3916 4.235,-11.3441 2.3716,-2.0202 4.2351,-5.439 4.2351,-7.77 0,-5.1282 2.8798,-7.7699 8.47,-7.7699 2.541,0 6.2679,-1.7094 8.4701,-3.885 2.3716,-2.1756 5.929,-3.885 8.4701,-3.885 2.541,0 6.0984,-1.7094 8.47,-3.885 3.5575,-3.4187 5.2515,-3.8849 16.9402,-3.8849 11.6887,0 13.3827,0.4662 16.9401,3.8849 2.3716,2.1756 5.929,3.885 8.4701,3.885 2.541,0 6.0984,1.7094 8.47,3.885 2.2023,2.1756 5.7597,3.885 8.1313,3.885 5.5902,0 17.2789,10.7225 17.2789,16.0061 0,2.4863 1.3553,4.6619 3.2187,5.5943 1.694,0.9324 3.5574,2.7972 4.235,4.0404 1.3552,3.4188 -10.3335,13.2089 -15.9237,13.2089 -3.0493,0 -8.1313,3.4188 -17.7872,12.4319 -7.4536,6.8376 -13.8909,12.2766 -14.3991,12.1212 -0.5082,-0.1554 -4.0656,-0.4662 -7.7924,-0.777 z" />
      <path
         style="fill-opacity:1"
         inkscape:connector-curvature="0"
         id="path3464"
         d="m 2609.8001,8620.8838 c -2.2022,-2.1756 -5.7597,-3.885 -8.1313,-3.885 -2.2022,0 -5.929,-1.7094 -8.1312,-3.885 -3.8963,-3.8849 -4.2351,-3.8849 -33.8803,-3.8849 -20.8364,0 -30.4923,-0.6216 -31.8475,-1.8648 -1.3552,-1.2432 -2.0328,-9.1686 -2.0328,-25.3301 0,-23.1544 0,-23.6206 4.235,-27.1948 2.3717,-2.0202 4.2351,-5.439 4.2351,-7.7699 0,-5.2836 11.1805,-15.5399 17.1095,-15.5399 2.3716,0 6.0985,-1.7094 8.3007,-3.885 3.2186,-3.108 5.5902,-3.885 12.7051,-3.885 7.1148,0 9.4865,-0.777 12.7051,-3.885 5.2514,-5.1281 11.0111,-4.9727 17.9565,0.6216 4.7433,3.885 6.4373,4.5066 12.5357,3.7296 6.9455,-0.9324 7.2843,-0.6216 18.8036,9.7901 6.4372,5.9052 11.6887,11.8104 11.6887,13.0536 0,1.3986 -2.2022,4.5065 -5.0821,6.9929 -3.0492,2.7972 -5.082,6.0606 -5.082,8.547 0,2.3309 -1.8634,5.5943 -4.235,7.7699 -2.3717,2.1756 -4.2351,5.439 -4.2351,7.77 0,2.4863 -1.8634,5.5943 -4.4044,7.9253 -4.4044,3.5742 -4.4044,4.0404 -3.7268,19.7357 0.6776,14.4521 0.5082,16.1615 -2.3717,17.5601 -2.3716,1.2432 -3.8962,0.6216 -7.1148,-2.4864 z" />
      <path
         style="fill-opacity:1"
         inkscape:connector-curvature="0"
         id="path3466"
         d="m 2838.1531,8605.3439 c -2.3716,-3.2634 -4.0656,-3.885 -11.5193,-3.885 -7.2842,0 -9.6559,-0.777 -12.8745,-3.885 -3.7268,-3.5741 -5.082,-3.8849 -21.1752,-3.8849 -18.4647,0 -21.1751,-0.9324 -21.1751,-7.77 0,-2.9526 -4.0657,-7.6145 -15.5849,-18.3371 -8.4701,-7.7699 -16.0932,-14.2967 -16.9402,-14.2967 -0.6776,0 -1.3552,-0.9324 -1.3552,-2.0202 0,-3.2633 12.8745,-11.9657 17.4483,-11.9657 2.2023,0 5.7597,-1.7094 7.9619,-3.885 3.8962,-3.8849 4.4044,-3.8849 29.6452,-3.8849 25.2408,0 25.749,0 29.6453,3.8849 2.3716,2.1756 5.929,3.885 8.47,3.885 2.5411,0 6.0985,1.7094 8.4701,3.885 2.2022,2.1756 5.9291,3.885 8.4701,3.885 6.0984,0 25.4102,17.8708 25.4102,23.6206 0,2.4864 1.5246,4.9728 4.235,6.5268 2.3716,1.3986 4.2351,3.4187 4.2351,4.6619 0,3.108 -12.8745,11.8104 -17.6178,11.8104 -2.8798,0 -6.4372,2.331 -11.5193,7.7699 -4.0656,4.1958 -8.3006,7.77 -9.3171,7.77 -1.1858,0 -3.388,-1.7094 -4.9126,-3.885 z" />
      <path
         style="fill-opacity:1"
         inkscape:connector-curvature="0"
         id="path3468"
         d="m 2961.4773,8601.4589 c -7.1149,-7.4591 -7.6231,-7.7699 -16.2625,-7.7699 -7.2843,0 -9.6559,-0.6216 -12.8745,-3.885 -3.5575,-3.4188 -5.2515,-3.885 -16.9402,-3.885 -12.7051,0 -13.0439,-0.1554 -19.1423,-5.9051 -3.8963,-3.5742 -6.2679,-7.4592 -6.2679,-9.7902 0,-2.6418 -3.0492,-6.5267 -9.3171,-12.2765 -5.082,-4.662 -9.317,-9.6347 -9.317,-11.0333 0,-3.5742 5.4208,-7.6146 10.5029,-7.6146 2.2022,0 5.7596,-1.554 7.7924,-3.5742 3.388,-3.2633 5.4209,-3.7295 21.3446,-4.0403 17.4483,-0.3108 17.4483,-0.3108 21.0058,4.0403 3.0492,3.885 4.4044,4.3512 13.3827,4.3512 8.6394,0 9.9946,0.4662 11.5193,3.5742 1.1858,2.4864 3.0492,3.4188 7.2842,3.4188 4.9127,0 8.1313,2.1755 25.0714,17.7154 17.4484,16.0061 19.3118,18.3371 19.3118,23.3099 0,3.7296 0.847,5.5944 2.2022,5.5944 4.235,0 8.1312,5.5943 7.1148,9.7901 -1.694,5.5944 -5.4208,6.3714 -9.9946,1.8648 -3.5575,-3.4188 -5.2515,-3.885 -16.6014,-3.885 -11.8581,0 -13.0439,0.3108 -15.5849,3.885 -1.5246,2.1756 -3.7268,3.885 -4.9126,3.885 -1.0164,0 -5.2515,-3.5742 -9.3171,-7.77 z" />
      <path
         style="fill-opacity:1"
         inkscape:connector-curvature="0"
         id="path3470"
         d="m 2450.7322,8592.6012 c -0.6776,-0.4662 -1.1858,-10.2564 -1.1858,-21.6005 0,-21.2897 -0.1694,-20.6681 7.7925,-26.884 1.5246,-1.2432 2.3716,-3.4188 1.694,-5.2836 -1.1858,-4.5066 10.5029,-15.0737 16.6013,-15.0737 3.2186,0 5.4209,-1.2432 7.4537,-4.662 2.7104,-4.3511 3.2186,-4.5065 12.1969,-3.5741 5.082,0.4662 15.4155,0.9324 22.8692,1.0878 12.7051,0.1554 13.5521,0.3108 15.9237,4.3511 2.541,4.0404 2.3716,4.5066 -2.8798,9.4794 -3.2187,2.9525 -5.4209,6.6821 -5.4209,9.0131 0,2.1756 -1.8634,5.5944 -4.235,7.6146 -2.3716,2.0201 -4.2351,5.4389 -4.2351,7.7699 0,5.2836 -11.1804,15.5399 -17.1095,15.5399 -2.3716,0 -6.0984,1.7094 -8.3007,3.885 -3.2186,3.2634 -5.5902,3.885 -12.8745,3.885 -8.6394,0 -9.1476,0.3108 -16.2625,7.7699 -6.9454,7.4592 -9.6559,9.0132 -12.0275,6.6822 z" />
      <path
         style="fill-opacity:1"
         inkscape:connector-curvature="0"
         id="path3472"
         d="m 2719.911,8543.3397 c -3.8963,-4.0404 -4.0657,-4.0404 -33.3721,-4.0404 l -29.4758,0 -14.3992,-13.0535 c -7.9618,-7.3038 -14.3991,-13.8305 -14.3991,-14.4521 0,-3.108 20.8364,-19.1141 24.7326,-19.1141 2.2022,0 5.9291,-1.8648 8.4701,-4.0404 4.5738,-4.0403 5.082,-4.0403 25.5796,-3.8849 19.6506,0.3108 21.0058,0.4662 25.2408,4.0403 2.3716,2.1756 6.0985,3.885 8.4701,3.885 3.0492,0 8.47,4.0404 19.8199,14.4521 8.4701,7.9254 15.585,15.3845 15.585,16.7831 0,3.5742 -5.5903,7.6146 -10.5029,7.6146 -3.0493,0 -6.4373,2.0201 -11.0111,6.6821 -8.9783,9.324 -9.9947,9.6348 -14.7379,5.1282 z" />
      <path
         style="fill-opacity:1"
         inkscape:connector-curvature="0"
         id="path3474"
         d="m 2847.6396,8535.4143 c -2.3716,-2.1756 -5.9291,-3.8849 -8.4701,-3.8849 -2.541,0 -6.0984,-1.7094 -8.4701,-3.885 -3.8962,-3.885 -4.4044,-3.885 -29.4758,-3.885 l -25.5796,0 -15.7543,-14.4521 c -8.4701,-7.9254 -15.5849,-15.3845 -15.5849,-16.7831 0,-3.5742 5.5902,-7.6145 10.5028,-7.6145 2.3717,0 5.9291,-1.7094 8.3007,-4.0404 3.5574,-3.5742 4.9126,-3.885 12.1969,-2.9526 7.6231,0.777 8.4701,0.6216 12.7051,-3.885 4.235,-4.5065 5.082,-4.6619 17.4483,-4.6619 12.3663,0 13.3828,0.3107 16.432,4.3511 3.0492,3.7296 4.5738,4.1958 13.3827,4.1958 8.6395,0 9.9947,0.4662 11.5193,3.5742 1.1858,2.4864 3.0492,3.4188 7.2842,3.4188 5.0821,0 7.7925,1.8647 21.6834,14.7629 8.8089,8.0807 15.9237,15.3845 15.9237,16.3169 0,0.9324 -3.2186,4.8173 -6.9454,8.5469 -5.0821,4.9728 -8.3007,6.993 -11.6887,6.993 -2.541,0 -6.0985,1.5539 -8.4701,3.8849 -2.3716,2.1756 -5.929,3.885 -8.47,3.885 -2.5411,0 -6.0985,-1.7094 -8.4701,-3.885 z" />
      <path
         style="fill-opacity:1"
         inkscape:connector-curvature="0"
         id="path3476"
         d="m 2560.3349,8514.4355 c -1.1858,-1.0878 -1.5246,-6.3714 -1.0164,-13.6751 l 0.847,-11.9658 14.9073,-13.6751 c 12.0275,-10.8779 15.7543,-13.5197 18.4648,-12.7427 2.541,0.777 4.7432,-0.3108 7.9618,-3.7296 4.4045,-4.662 5.2515,-4.8174 17.6178,-4.8174 12.3663,0 13.3827,0.3108 16.4319,4.1958 2.3716,3.108 4.7432,4.1958 7.9619,3.885 4.7432,-0.3108 17.7871,7.9253 17.7871,11.3441 0,2.9526 -13.0439,11.655 -17.2789,11.655 -5.4209,0 -16.6014,10.5671 -16.6014,15.5399 0,4.5065 -0.6776,5.4389 -7.9618,11.4995 l -5.4209,4.3512 -4.235,-4.1958 c -4.0656,-4.0404 -4.9127,-4.1958 -20.667,-4.0404 -15.2461,0.1554 -16.6013,0.3108 -20.3281,4.0404 -4.2351,4.3512 -5.9291,4.662 -8.4701,2.331 z" />
      <path
         style="fill-opacity:1"
         inkscape:connector-curvature="0"
         id="path3478"
         d="m 2493.252,8505.5777 c -1.6941,-1.8648 -0.8471,-3.2634 4.7432,-7.4591 4.0656,-3.2634 8.4701,-5.2836 11.5193,-5.439 3.5574,0 6.776,-2.0202 12.7051,-7.7699 7.4536,-7.3038 8.3007,-7.6146 16.2625,-7.6146 4.7433,0.1554 9.4865,0.9324 10.6723,1.7094 3.388,2.6418 2.3716,9.7901 -2.0328,13.6751 -2.7104,2.1756 -4.4045,5.5944 -4.7433,9.1685 l -0.5082,5.5944 -23.2079,0.1554 c -18.6342,0.1554 -23.7162,-0.1554 -25.4102,-2.0202 z" />
      <path
         style="fill-opacity:1"
         inkscape:connector-curvature="0"
         id="path3480"
         d="m 2720.5886,8481.0247 c -3.7269,-3.5742 -5.0821,-3.885 -21.1752,-3.885 l -17.1095,0 -10.5029,-9.7901 c -8.1313,-7.6146 -10.5029,-10.7226 -10.1641,-13.6751 1.0164,-6.0606 2.8798,-7.6146 9.4865,-7.6146 4.9126,0 6.6066,-0.777 7.9618,-3.4188 1.6941,-3.4188 2.7105,-3.5742 23.5468,-4.0404 l 22.0222,-0.4662 4.5738,4.8174 c 3.7269,3.7296 5.7597,4.5066 8.9783,3.7296 3.2186,-0.6216 4.7432,0 6.9455,3.108 2.2022,2.9526 4.4044,4.0403 8.6394,4.0403 3.8963,0 6.4373,1.0878 8.1313,3.4188 3.7268,4.8174 3.5574,5.1282 -4.235,12.8981 -5.0821,4.9728 -8.3007,6.993 -11.6887,6.993 -2.541,0 -6.0985,1.554 -8.4701,3.885 -2.3716,2.1756 -5.929,3.885 -8.4701,3.885 -2.541,0 -6.0984,-1.7094 -8.47,-3.885 z" />
      <g
         style="opacity:1;fill:#000000;fill-opacity:1"
         transform="matrix(1.9129348,0,0,-1.4277581,2212.4097,8961.879)"
         id="g4">
        <g
           style="fill:#000000;fill-opacity:1"
           id="g6">
          <path
             style="clip-rule:evenodd;fill:#000000;fill-opacity:1;fill-rule:evenodd"
             inkscape:connector-curvature="0"
             id="path8"
             d="m 107.12303,-21.467766 c 0.87242,9.78603 -2.12808,15.3313798 -2.01714,24.2829698 -13.09734,6.23631 -13.97279,30.6771202 -19.1629,48.5659402 -3.74081,12.89316 -8.16239,27.93756 -18.15433,34.21692 -31.61375,19.868986 -83.3536,11.7055 -102.87454,-14.34903 -4.83712,-6.45596 -10.98237,-18.83696 -15.12861,-28.69806 -6.39637,-15.20997 -7.07212,-37.8770202 -25.21435,-29.80183 -6.04639,2.691 -12.40243,26.2521 -17.14575,36.42446 -5.32528,11.41962 -13.10642,25.97064 -20.17148,32.00937 -20.93698,17.89324 -73.86493,21.228836 -95.81452,1.10378 -19.52196,-17.89987 -12.44177,-64.27262 -33.28294,-80.5753202 -0.16944,-8.27608 -2.82501,-13.8324698 -2.01714,-23.1791998 34.66669,-11.59402 87.10145,-6.48797 123.04602,1.10377 17.68634,3.73516 34.50834,11.9637798 53.45441,11.0377098 13.56532,-0.66336 27.80739,-6.0961298 41.35153,-8.8301698 41.66014,-8.41074 85.13069,-13.09625 133.13174,-3.31131 z" />
        </g>
      </g>
    </g>
  </g>
</svg>
